<svg width="274" height="282" viewBox="0 0 274 282" fill="none" xmlns="http://www.w3.org/2000/svg"><path d="M291.827 98.756c-2.08 3.228-4.066 6.523-5.824 9.938-9.908 19.226-15.81 38.032-12.96 58.029 6.475 45.425 50.848 60.013 58.261 98.957 4.952 34.744-19.147 66.945-53.823 71.925-37.096 5.926-64.838-35.31-111.591-28.596-48.552 6.974-61.859 54.102-99.132 58.864-34.677 4.98-66.804-19.149-71.756-53.893-4.951-34.744 19.146-66.948 53.823-71.928 37.096-5.926 64.212 35.4 111.59 28.595 45.491-8.121 80.728-53.604 74.34-98.421-6.977-48.95-53.959-61.952-58.692-99.298C171.111 38.185 195.209 5.98 229.885 1c53.348-8.06 91.375 52.087 61.942 97.756z" fill="#F5F6F6"/></svg>